<mxfile host="app.diagrams.net" modified="2021-02-03T01:06:17.910Z" agent="5.0 (Macintosh; Intel Mac OS X 10_15_6) AppleWebKit/537.36 (KHTML, like Gecko) Chrome/87.0.4280.141 Safari/537.36" etag="CUK7VEE_ahDopHdsfNnD" version="14.2.9" type="github">
  <diagram name="Page-1" id="03018318-947c-dd8e-b7a3-06fadd420f32">
    <mxGraphModel dx="1186" dy="2384" grid="1" gridSize="10" guides="1" tooltips="1" connect="1" arrows="1" fold="1" page="1" pageScale="1" pageWidth="1100" pageHeight="850" background="#ffffff" math="0" shadow="0">
      <root>
        <mxCell id="0" />
        <mxCell id="1" parent="0" />
        <mxCell id="677b7b8949515195-3" value="Search" style="strokeWidth=1;shadow=0;align=center;html=1;shape=mxgraph.mockup.forms.searchBox;strokeColor=#999999;mainText=;strokeColor2=#008cff;fontColor=#666666;fontSize=17;align=left;spacingLeft=3;rounded=0;labelBackgroundColor=none;comic=1;" parent="1" vertex="1">
          <mxGeometry x="730" y="-740" width="290" height="30" as="geometry" />
        </mxCell>
        <mxCell id="5NB1hFwePOgQbVpTFOs5-40" value="Untitled Layer" parent="0" />
        <mxCell id="5NB1hFwePOgQbVpTFOs5-164" value="" style="html=1;verticalLabelPosition=bottom;align=center;labelBackgroundColor=#ffffff;verticalAlign=top;strokeWidth=2;strokeColor=#0080F0;shadow=0;dashed=0;shape=mxgraph.ios7.icons.book;fontSize=33;fontColor=#000000;" vertex="1" parent="5NB1hFwePOgQbVpTFOs5-40">
          <mxGeometry x="285" y="195" width="710" height="305" as="geometry" />
        </mxCell>
        <mxCell id="5NB1hFwePOgQbVpTFOs5-166" value="" style="html=1;verticalLabelPosition=bottom;align=center;labelBackgroundColor=#ffffff;verticalAlign=top;strokeWidth=2;strokeColor=#0080F0;shadow=0;dashed=0;shape=mxgraph.ios7.icons.book;fontSize=33;fontColor=#000000;" vertex="1" parent="5NB1hFwePOgQbVpTFOs5-40">
          <mxGeometry x="300" y="200" width="680" height="285" as="geometry" />
        </mxCell>
        <mxCell id="5NB1hFwePOgQbVpTFOs5-176" value="" style="html=1;verticalLabelPosition=bottom;align=center;labelBackgroundColor=#ffffff;verticalAlign=top;strokeWidth=2;strokeColor=#0080F0;shadow=0;dashed=0;shape=mxgraph.ios7.icons.book;fontSize=13;fontColor=#000000;" vertex="1" parent="5NB1hFwePOgQbVpTFOs5-40">
          <mxGeometry x="320" y="195" width="650" height="290" as="geometry" />
        </mxCell>
        <mxCell id="5NB1hFwePOgQbVpTFOs5-44" value="" style="endArrow=none;html=1;" edge="1" parent="5NB1hFwePOgQbVpTFOs5-40">
          <mxGeometry width="50" height="50" relative="1" as="geometry">
            <mxPoint x="40" y="-760" as="sourcePoint" />
            <mxPoint x="1040" y="-760" as="targetPoint" />
          </mxGeometry>
        </mxCell>
        <mxCell id="5NB1hFwePOgQbVpTFOs5-45" value="" style="endArrow=none;html=1;" edge="1" parent="5NB1hFwePOgQbVpTFOs5-40">
          <mxGeometry width="50" height="50" relative="1" as="geometry">
            <mxPoint x="40" y="-120" as="sourcePoint" />
            <mxPoint x="1040" y="-120" as="targetPoint" />
          </mxGeometry>
        </mxCell>
        <mxCell id="5NB1hFwePOgQbVpTFOs5-46" value="" style="endArrow=none;html=1;" edge="1" parent="5NB1hFwePOgQbVpTFOs5-40">
          <mxGeometry width="50" height="50" relative="1" as="geometry">
            <mxPoint x="40" y="-680" as="sourcePoint" />
            <mxPoint x="1040" y="-680" as="targetPoint" />
          </mxGeometry>
        </mxCell>
        <mxCell id="5NB1hFwePOgQbVpTFOs5-48" value="x&lt;span style=&quot;color: rgba(0 , 0 , 0 , 0) ; font-family: monospace ; font-size: 0px ; background-color: rgb(248 , 249 , 250)&quot;&gt;%3CmxGraphModel%3E%3Croot%3E%3CmxCell%20id%3D%220%22%2F%3E%3CmxCell%20id%3D%221%22%20parent%3D%220%22%2F%3E%3CmxCell%20id%3D%222%22%20value%3D%22%22%20style%3D%22endArrow%3Dnone%3Bhtml%3D1%3B%22%20edge%3D%221%22%20parent%3D%221%22%3E%3CmxGeometry%20width%3D%2250%22%20height%3D%2250%22%20relative%3D%221%22%20as%3D%22geometry%22%3E%3CmxPoint%20x%3D%2240%22%20y%3D%22-800%22%20as%3D%22sourcePoint%22%2F%3E%3CmxPoint%20x%3D%221040%22%20y%3D%22-800%22%20as%3D%22targetPoint%22%2F%3E%3C%2FmxGeometry%3E%3C%2FmxCell%3E%3C%2Froot%3E%3C%2FmxGraphModel%3E&lt;/span&gt;" style="endArrow=none;html=1;" edge="1" parent="5NB1hFwePOgQbVpTFOs5-40">
          <mxGeometry width="50" height="50" relative="1" as="geometry">
            <mxPoint x="40" y="-120" as="sourcePoint" />
            <mxPoint x="40" y="-760" as="targetPoint" />
          </mxGeometry>
        </mxCell>
        <mxCell id="5NB1hFwePOgQbVpTFOs5-50" value="x&lt;span style=&quot;color: rgba(0 , 0 , 0 , 0) ; font-family: monospace ; font-size: 0px ; background-color: rgb(248 , 249 , 250)&quot;&gt;%3CmxGraphModel%3E%3Croot%3E%3CmxCell%20id%3D%220%22%2F%3E%3CmxCell%20id%3D%221%22%20parent%3D%220%22%2F%3E%3CmxCell%20id%3D%222%22%20value%3D%22%22%20style%3D%22endArrow%3Dnone%3Bhtml%3D1%3B%22%20edge%3D%221%22%20parent%3D%221%22%3E%3CmxGeometry%20width%3D%2250%22%20height%3D%2250%22%20relative%3D%221%22%20as%3D%22geometry%22%3E%3CmxPoint%20x%3D%2240%22%20y%3D%22-800%22%20as%3D%22sourcePoint%22%2F%3E%3CmxPoint%20x%3D%221040%22%20y%3D%22-800%22%20as%3D%22targetPoint%22%2F%3E%3C%2FmxGeometry%3E%3C%2FmxCell%3E%3C%2Froot%3E%3C%2FmxGraphModel%3E&lt;/span&gt;" style="endArrow=none;html=1;" edge="1" parent="5NB1hFwePOgQbVpTFOs5-40">
          <mxGeometry width="50" height="50" relative="1" as="geometry">
            <mxPoint x="1040" y="-120" as="sourcePoint" />
            <mxPoint x="1040" y="-760" as="targetPoint" />
          </mxGeometry>
        </mxCell>
        <mxCell id="5NB1hFwePOgQbVpTFOs5-65" value="" style="endArrow=none;html=1;" edge="1" parent="5NB1hFwePOgQbVpTFOs5-40">
          <mxGeometry width="50" height="50" relative="1" as="geometry">
            <mxPoint x="320" y="-600" as="sourcePoint" />
            <mxPoint x="1000" y="-600" as="targetPoint" />
          </mxGeometry>
        </mxCell>
        <mxCell id="5NB1hFwePOgQbVpTFOs5-66" value="" style="endArrow=none;html=1;" edge="1" parent="5NB1hFwePOgQbVpTFOs5-40">
          <mxGeometry width="50" height="50" relative="1" as="geometry">
            <mxPoint x="320" y="-600" as="sourcePoint" />
            <mxPoint x="320" y="-240" as="targetPoint" />
          </mxGeometry>
        </mxCell>
        <mxCell id="5NB1hFwePOgQbVpTFOs5-67" value="" style="endArrow=none;html=1;" edge="1" parent="5NB1hFwePOgQbVpTFOs5-40">
          <mxGeometry width="50" height="50" relative="1" as="geometry">
            <mxPoint x="1000" y="-600" as="sourcePoint" />
            <mxPoint x="1000" y="-240" as="targetPoint" />
          </mxGeometry>
        </mxCell>
        <mxCell id="5NB1hFwePOgQbVpTFOs5-68" value="" style="endArrow=none;html=1;" edge="1" parent="5NB1hFwePOgQbVpTFOs5-40">
          <mxGeometry width="50" height="50" relative="1" as="geometry">
            <mxPoint x="320" y="-240" as="sourcePoint" />
            <mxPoint x="1000" y="-240" as="targetPoint" />
          </mxGeometry>
        </mxCell>
        <mxCell id="5NB1hFwePOgQbVpTFOs5-69" value="" style="endArrow=none;html=1;" edge="1" parent="5NB1hFwePOgQbVpTFOs5-40">
          <mxGeometry width="50" height="50" relative="1" as="geometry">
            <mxPoint x="360" y="-560" as="sourcePoint" />
            <mxPoint x="960" y="-560" as="targetPoint" />
          </mxGeometry>
        </mxCell>
        <mxCell id="5NB1hFwePOgQbVpTFOs5-70" value="" style="endArrow=none;html=1;" edge="1" parent="5NB1hFwePOgQbVpTFOs5-40">
          <mxGeometry width="50" height="50" relative="1" as="geometry">
            <mxPoint x="360" y="-440" as="sourcePoint" />
            <mxPoint x="960" y="-440" as="targetPoint" />
          </mxGeometry>
        </mxCell>
        <mxCell id="5NB1hFwePOgQbVpTFOs5-71" value="" style="endArrow=none;html=1;" edge="1" parent="5NB1hFwePOgQbVpTFOs5-40">
          <mxGeometry width="50" height="50" relative="1" as="geometry">
            <mxPoint x="360" y="-400" as="sourcePoint" />
            <mxPoint x="960" y="-400" as="targetPoint" />
          </mxGeometry>
        </mxCell>
        <mxCell id="5NB1hFwePOgQbVpTFOs5-72" value="" style="endArrow=none;html=1;" edge="1" parent="5NB1hFwePOgQbVpTFOs5-40">
          <mxGeometry width="50" height="50" relative="1" as="geometry">
            <mxPoint x="360" y="-280" as="sourcePoint" />
            <mxPoint x="960" y="-280" as="targetPoint" />
          </mxGeometry>
        </mxCell>
        <mxCell id="5NB1hFwePOgQbVpTFOs5-74" value="" style="endArrow=none;html=1;" edge="1" parent="5NB1hFwePOgQbVpTFOs5-40">
          <mxGeometry width="50" height="50" relative="1" as="geometry">
            <mxPoint x="360" y="-440" as="sourcePoint" />
            <mxPoint x="360" y="-560" as="targetPoint" />
          </mxGeometry>
        </mxCell>
        <mxCell id="5NB1hFwePOgQbVpTFOs5-75" value="" style="endArrow=none;html=1;" edge="1" parent="5NB1hFwePOgQbVpTFOs5-40">
          <mxGeometry width="50" height="50" relative="1" as="geometry">
            <mxPoint x="960" y="-440" as="sourcePoint" />
            <mxPoint x="960" y="-560" as="targetPoint" />
          </mxGeometry>
        </mxCell>
        <mxCell id="5NB1hFwePOgQbVpTFOs5-76" value="" style="endArrow=none;html=1;" edge="1" parent="5NB1hFwePOgQbVpTFOs5-40">
          <mxGeometry width="50" height="50" relative="1" as="geometry">
            <mxPoint x="360" y="-280" as="sourcePoint" />
            <mxPoint x="360" y="-400" as="targetPoint" />
          </mxGeometry>
        </mxCell>
        <mxCell id="5NB1hFwePOgQbVpTFOs5-77" value="" style="endArrow=none;html=1;" edge="1" parent="5NB1hFwePOgQbVpTFOs5-40">
          <mxGeometry width="50" height="50" relative="1" as="geometry">
            <mxPoint x="960" y="-280" as="sourcePoint" />
            <mxPoint x="960" y="-400" as="targetPoint" />
          </mxGeometry>
        </mxCell>
        <mxCell id="5NB1hFwePOgQbVpTFOs5-78" value="" style="rounded=1;whiteSpace=wrap;html=1;rotation=-90;" vertex="1" parent="5NB1hFwePOgQbVpTFOs5-40">
          <mxGeometry x="320" y="-520" width="120" height="40" as="geometry" />
        </mxCell>
        <mxCell id="5NB1hFwePOgQbVpTFOs5-79" value="" style="rounded=1;whiteSpace=wrap;html=1;rotation=-90;" vertex="1" parent="5NB1hFwePOgQbVpTFOs5-40">
          <mxGeometry x="360" y="-520" width="120" height="40" as="geometry" />
        </mxCell>
        <mxCell id="5NB1hFwePOgQbVpTFOs5-80" value="" style="rounded=1;whiteSpace=wrap;html=1;rotation=-90;" vertex="1" parent="5NB1hFwePOgQbVpTFOs5-40">
          <mxGeometry x="400" y="-520" width="120" height="40" as="geometry" />
        </mxCell>
        <mxCell id="5NB1hFwePOgQbVpTFOs5-81" value="" style="rounded=1;whiteSpace=wrap;html=1;rotation=-90;" vertex="1" parent="5NB1hFwePOgQbVpTFOs5-40">
          <mxGeometry x="440" y="-520" width="120" height="40" as="geometry" />
        </mxCell>
        <mxCell id="5NB1hFwePOgQbVpTFOs5-82" value="" style="shape=ext;double=1;whiteSpace=wrap;html=1;aspect=fixed;" vertex="1" parent="5NB1hFwePOgQbVpTFOs5-40">
          <mxGeometry x="650" y="-515" width="30" height="30" as="geometry" />
        </mxCell>
        <mxCell id="5NB1hFwePOgQbVpTFOs5-83" value="" style="shape=ext;double=1;whiteSpace=wrap;html=1;aspect=fixed;" vertex="1" parent="5NB1hFwePOgQbVpTFOs5-40">
          <mxGeometry x="650" y="-350" width="30" height="30" as="geometry" />
        </mxCell>
        <mxCell id="5NB1hFwePOgQbVpTFOs5-88" value="" style="rounded=0;whiteSpace=wrap;html=1;" vertex="1" parent="5NB1hFwePOgQbVpTFOs5-40">
          <mxGeometry x="40" y="-200" width="1000" height="80" as="geometry" />
        </mxCell>
        <mxCell id="5NB1hFwePOgQbVpTFOs5-89" value="footer" style="text;html=1;strokeColor=none;fillColor=none;align=center;verticalAlign=middle;whiteSpace=wrap;rounded=0;" vertex="1" parent="5NB1hFwePOgQbVpTFOs5-40">
          <mxGeometry x="500" y="-180" width="110" height="40" as="geometry" />
        </mxCell>
        <mxCell id="5NB1hFwePOgQbVpTFOs5-90" value="" style="shape=image;html=1;verticalAlign=top;verticalLabelPosition=bottom;labelBackgroundColor=#ffffff;imageAspect=0;aspect=fixed;image=https://cdn4.iconfinder.com/data/icons/basic-user-interface-elements/700/plus-add-new-create-attach-maximize-128.png" vertex="1" parent="5NB1hFwePOgQbVpTFOs5-40">
          <mxGeometry x="656" y="-509" width="18" height="18" as="geometry" />
        </mxCell>
        <mxCell id="5NB1hFwePOgQbVpTFOs5-91" value="" style="shape=image;html=1;verticalAlign=top;verticalLabelPosition=bottom;labelBackgroundColor=#ffffff;imageAspect=0;aspect=fixed;image=https://cdn4.iconfinder.com/data/icons/basic-user-interface-elements/700/plus-add-new-create-attach-maximize-128.png" vertex="1" parent="5NB1hFwePOgQbVpTFOs5-40">
          <mxGeometry x="656" y="-344" width="18" height="18" as="geometry" />
        </mxCell>
        <mxCell id="5NB1hFwePOgQbVpTFOs5-92" value="name of journal" style="text;html=1;strokeColor=none;fillColor=none;align=center;verticalAlign=middle;whiteSpace=wrap;rounded=0;rotation=-90;" vertex="1" parent="5NB1hFwePOgQbVpTFOs5-40">
          <mxGeometry x="325" y="-505" width="110" height="20" as="geometry" />
        </mxCell>
        <mxCell id="5NB1hFwePOgQbVpTFOs5-93" value="name of journal" style="text;html=1;strokeColor=none;fillColor=none;align=center;verticalAlign=middle;whiteSpace=wrap;rounded=0;rotation=-90;" vertex="1" parent="5NB1hFwePOgQbVpTFOs5-40">
          <mxGeometry x="365" y="-505" width="110" height="20" as="geometry" />
        </mxCell>
        <mxCell id="5NB1hFwePOgQbVpTFOs5-94" value="" style="rounded=0;whiteSpace=wrap;html=1;rotation=-90;" vertex="1" parent="5NB1hFwePOgQbVpTFOs5-40">
          <mxGeometry x="-100" y="-540" width="480" height="200" as="geometry" />
        </mxCell>
        <mxCell id="5NB1hFwePOgQbVpTFOs5-99" value="" style="rounded=1;whiteSpace=wrap;html=1;fillColor=#dae8fc;strokeColor=#6c8ebf;" vertex="1" parent="5NB1hFwePOgQbVpTFOs5-40">
          <mxGeometry x="80" y="-640" width="120" height="40" as="geometry" />
        </mxCell>
        <mxCell id="5NB1hFwePOgQbVpTFOs5-100" value="" style="rounded=1;whiteSpace=wrap;html=1;fillColor=#dae8fc;strokeColor=#6c8ebf;" vertex="1" parent="5NB1hFwePOgQbVpTFOs5-40">
          <mxGeometry x="80" y="-580" width="120" height="40" as="geometry" />
        </mxCell>
        <mxCell id="5NB1hFwePOgQbVpTFOs5-101" value="" style="rounded=1;whiteSpace=wrap;html=1;fillColor=#f5f5f5;strokeColor=#666666;fontColor=#333333;" vertex="1" parent="5NB1hFwePOgQbVpTFOs5-40">
          <mxGeometry x="80" y="-520" width="120" height="40" as="geometry" />
        </mxCell>
        <mxCell id="5NB1hFwePOgQbVpTFOs5-102" value="" style="rounded=1;whiteSpace=wrap;html=1;fillColor=#f5f5f5;strokeColor=#666666;fontColor=#333333;" vertex="1" parent="5NB1hFwePOgQbVpTFOs5-40">
          <mxGeometry x="80" y="-460" width="120" height="40" as="geometry" />
        </mxCell>
        <mxCell id="5NB1hFwePOgQbVpTFOs5-104" value="" style="ellipse;whiteSpace=wrap;html=1;aspect=fixed;" vertex="1" parent="5NB1hFwePOgQbVpTFOs5-40">
          <mxGeometry x="70" y="-750" width="60" height="60" as="geometry" />
        </mxCell>
        <mxCell id="5NB1hFwePOgQbVpTFOs5-105" value="Project Name" style="text;html=1;strokeColor=none;fillColor=none;align=center;verticalAlign=middle;whiteSpace=wrap;rounded=0;strokeWidth=6;fontSize=34;" vertex="1" parent="5NB1hFwePOgQbVpTFOs5-40">
          <mxGeometry x="140" y="-760" width="210" height="80" as="geometry" />
        </mxCell>
        <mxCell id="5NB1hFwePOgQbVpTFOs5-106" value="Welcome {Username}" style="text;html=1;strokeColor=none;fillColor=none;align=center;verticalAlign=middle;whiteSpace=wrap;rounded=0;fontSize=34;" vertex="1" parent="5NB1hFwePOgQbVpTFOs5-40">
          <mxGeometry x="440" y="-660" width="400" height="20" as="geometry" />
        </mxCell>
        <mxCell id="5NB1hFwePOgQbVpTFOs5-108" value="Add a Journal" style="text;html=1;strokeColor=none;fillColor=none;align=center;verticalAlign=middle;whiteSpace=wrap;rounded=0;fontSize=14;" vertex="1" parent="5NB1hFwePOgQbVpTFOs5-40">
          <mxGeometry x="87.5" y="-580" width="105" height="40" as="geometry" />
        </mxCell>
        <mxCell id="5NB1hFwePOgQbVpTFOs5-111" value="History" style="text;html=1;strokeColor=none;fillColor=none;align=center;verticalAlign=middle;whiteSpace=wrap;rounded=0;fontSize=14;" vertex="1" parent="5NB1hFwePOgQbVpTFOs5-40">
          <mxGeometry x="96.5" y="-640" width="85" height="40" as="geometry" />
        </mxCell>
        <mxCell id="5NB1hFwePOgQbVpTFOs5-112" value="Edit Journal" style="text;html=1;strokeColor=none;fillColor=none;align=center;verticalAlign=middle;whiteSpace=wrap;rounded=0;fontSize=14;" vertex="1" parent="5NB1hFwePOgQbVpTFOs5-40">
          <mxGeometry x="93" y="-520" width="95" height="40" as="geometry" />
        </mxCell>
        <mxCell id="5NB1hFwePOgQbVpTFOs5-113" value="Delete Journal" style="text;html=1;strokeColor=none;fillColor=none;align=center;verticalAlign=middle;whiteSpace=wrap;rounded=0;fontSize=14;" vertex="1" parent="5NB1hFwePOgQbVpTFOs5-40">
          <mxGeometry x="86.5" y="-460" width="105" height="40" as="geometry" />
        </mxCell>
        <mxCell id="5NB1hFwePOgQbVpTFOs5-114" value="Search" style="strokeWidth=1;shadow=0;align=center;html=1;shape=mxgraph.mockup.forms.searchBox;strokeColor=#999999;mainText=;strokeColor2=#008cff;fontColor=#666666;fontSize=17;align=left;spacingLeft=3;rounded=0;labelBackgroundColor=none;comic=1;" vertex="1" parent="5NB1hFwePOgQbVpTFOs5-40">
          <mxGeometry x="729" y="-10" width="290" height="30" as="geometry" />
        </mxCell>
        <mxCell id="5NB1hFwePOgQbVpTFOs5-115" value="" style="endArrow=none;html=1;" edge="1" parent="5NB1hFwePOgQbVpTFOs5-40">
          <mxGeometry width="50" height="50" relative="1" as="geometry">
            <mxPoint x="39" y="-30" as="sourcePoint" />
            <mxPoint x="1039" y="-30" as="targetPoint" />
          </mxGeometry>
        </mxCell>
        <mxCell id="5NB1hFwePOgQbVpTFOs5-116" value="" style="endArrow=none;html=1;" edge="1" parent="5NB1hFwePOgQbVpTFOs5-40">
          <mxGeometry width="50" height="50" relative="1" as="geometry">
            <mxPoint x="39" y="610" as="sourcePoint" />
            <mxPoint x="1039" y="610" as="targetPoint" />
          </mxGeometry>
        </mxCell>
        <mxCell id="5NB1hFwePOgQbVpTFOs5-117" value="" style="endArrow=none;html=1;" edge="1" parent="5NB1hFwePOgQbVpTFOs5-40">
          <mxGeometry width="50" height="50" relative="1" as="geometry">
            <mxPoint x="39" y="50" as="sourcePoint" />
            <mxPoint x="1039" y="50" as="targetPoint" />
          </mxGeometry>
        </mxCell>
        <mxCell id="5NB1hFwePOgQbVpTFOs5-118" value="x&lt;span style=&quot;color: rgba(0 , 0 , 0 , 0) ; font-family: monospace ; font-size: 0px ; background-color: rgb(248 , 249 , 250)&quot;&gt;%3CmxGraphModel%3E%3Croot%3E%3CmxCell%20id%3D%220%22%2F%3E%3CmxCell%20id%3D%221%22%20parent%3D%220%22%2F%3E%3CmxCell%20id%3D%222%22%20value%3D%22%22%20style%3D%22endArrow%3Dnone%3Bhtml%3D1%3B%22%20edge%3D%221%22%20parent%3D%221%22%3E%3CmxGeometry%20width%3D%2250%22%20height%3D%2250%22%20relative%3D%221%22%20as%3D%22geometry%22%3E%3CmxPoint%20x%3D%2240%22%20y%3D%22-800%22%20as%3D%22sourcePoint%22%2F%3E%3CmxPoint%20x%3D%221040%22%20y%3D%22-800%22%20as%3D%22targetPoint%22%2F%3E%3C%2FmxGeometry%3E%3C%2FmxCell%3E%3C%2Froot%3E%3C%2FmxGraphModel%3E&lt;/span&gt;" style="endArrow=none;html=1;" edge="1" parent="5NB1hFwePOgQbVpTFOs5-40">
          <mxGeometry width="50" height="50" relative="1" as="geometry">
            <mxPoint x="39" y="610" as="sourcePoint" />
            <mxPoint x="39" y="-30" as="targetPoint" />
          </mxGeometry>
        </mxCell>
        <mxCell id="5NB1hFwePOgQbVpTFOs5-119" value="x&lt;span style=&quot;color: rgba(0 , 0 , 0 , 0) ; font-family: monospace ; font-size: 0px ; background-color: rgb(248 , 249 , 250)&quot;&gt;%3CmxGraphModel%3E%3Croot%3E%3CmxCell%20id%3D%220%22%2F%3E%3CmxCell%20id%3D%221%22%20parent%3D%220%22%2F%3E%3CmxCell%20id%3D%222%22%20value%3D%22%22%20style%3D%22endArrow%3Dnone%3Bhtml%3D1%3B%22%20edge%3D%221%22%20parent%3D%221%22%3E%3CmxGeometry%20width%3D%2250%22%20height%3D%2250%22%20relative%3D%221%22%20as%3D%22geometry%22%3E%3CmxPoint%20x%3D%2240%22%20y%3D%22-800%22%20as%3D%22sourcePoint%22%2F%3E%3CmxPoint%20x%3D%221040%22%20y%3D%22-800%22%20as%3D%22targetPoint%22%2F%3E%3C%2FmxGeometry%3E%3C%2FmxCell%3E%3C%2Froot%3E%3C%2FmxGraphModel%3E&lt;/span&gt;" style="endArrow=none;html=1;" edge="1" parent="5NB1hFwePOgQbVpTFOs5-40">
          <mxGeometry width="50" height="50" relative="1" as="geometry">
            <mxPoint x="1039" y="610" as="sourcePoint" />
            <mxPoint x="1039" y="-30" as="targetPoint" />
          </mxGeometry>
        </mxCell>
        <mxCell id="5NB1hFwePOgQbVpTFOs5-138" value="" style="rounded=0;whiteSpace=wrap;html=1;" vertex="1" parent="5NB1hFwePOgQbVpTFOs5-40">
          <mxGeometry x="39" y="530" width="1000" height="80" as="geometry" />
        </mxCell>
        <mxCell id="5NB1hFwePOgQbVpTFOs5-139" value="footer" style="text;html=1;strokeColor=none;fillColor=none;align=center;verticalAlign=middle;whiteSpace=wrap;rounded=0;" vertex="1" parent="5NB1hFwePOgQbVpTFOs5-40">
          <mxGeometry x="499" y="550" width="110" height="40" as="geometry" />
        </mxCell>
        <mxCell id="5NB1hFwePOgQbVpTFOs5-144" value="" style="rounded=0;whiteSpace=wrap;html=1;rotation=-90;" vertex="1" parent="5NB1hFwePOgQbVpTFOs5-40">
          <mxGeometry x="-101" y="190" width="480" height="200" as="geometry" />
        </mxCell>
        <mxCell id="5NB1hFwePOgQbVpTFOs5-145" value="" style="rounded=1;whiteSpace=wrap;html=1;" vertex="1" parent="5NB1hFwePOgQbVpTFOs5-40">
          <mxGeometry x="79" y="90" width="120" height="40" as="geometry" />
        </mxCell>
        <mxCell id="5NB1hFwePOgQbVpTFOs5-146" value="" style="rounded=1;whiteSpace=wrap;html=1;" vertex="1" parent="5NB1hFwePOgQbVpTFOs5-40">
          <mxGeometry x="79" y="150" width="120" height="40" as="geometry" />
        </mxCell>
        <mxCell id="5NB1hFwePOgQbVpTFOs5-147" value="" style="rounded=1;whiteSpace=wrap;html=1;" vertex="1" parent="5NB1hFwePOgQbVpTFOs5-40">
          <mxGeometry x="79" y="210" width="120" height="40" as="geometry" />
        </mxCell>
        <mxCell id="5NB1hFwePOgQbVpTFOs5-148" value="" style="rounded=1;whiteSpace=wrap;html=1;" vertex="1" parent="5NB1hFwePOgQbVpTFOs5-40">
          <mxGeometry x="79" y="270" width="120" height="40" as="geometry" />
        </mxCell>
        <mxCell id="5NB1hFwePOgQbVpTFOs5-149" value="" style="ellipse;whiteSpace=wrap;html=1;aspect=fixed;" vertex="1" parent="5NB1hFwePOgQbVpTFOs5-40">
          <mxGeometry x="69" y="-20" width="60" height="60" as="geometry" />
        </mxCell>
        <mxCell id="5NB1hFwePOgQbVpTFOs5-150" value="Project Name" style="text;html=1;strokeColor=none;fillColor=none;align=center;verticalAlign=middle;whiteSpace=wrap;rounded=0;strokeWidth=6;fontSize=34;" vertex="1" parent="5NB1hFwePOgQbVpTFOs5-40">
          <mxGeometry x="139" y="-30" width="210" height="80" as="geometry" />
        </mxCell>
        <mxCell id="5NB1hFwePOgQbVpTFOs5-152" value="Add a Journal" style="text;html=1;strokeColor=none;fillColor=none;align=center;verticalAlign=middle;whiteSpace=wrap;rounded=0;fontSize=14;" vertex="1" parent="5NB1hFwePOgQbVpTFOs5-40">
          <mxGeometry x="54" y="150" width="170" height="40" as="geometry" />
        </mxCell>
        <mxCell id="5NB1hFwePOgQbVpTFOs5-153" value="History" style="text;html=1;strokeColor=none;fillColor=none;align=center;verticalAlign=middle;whiteSpace=wrap;rounded=0;fontSize=14;" vertex="1" parent="5NB1hFwePOgQbVpTFOs5-40">
          <mxGeometry x="54" y="90" width="170" height="40" as="geometry" />
        </mxCell>
        <mxCell id="5NB1hFwePOgQbVpTFOs5-154" value="Edit a Journal" style="text;html=1;strokeColor=none;fillColor=none;align=center;verticalAlign=middle;whiteSpace=wrap;rounded=0;fontSize=14;" vertex="1" parent="5NB1hFwePOgQbVpTFOs5-40">
          <mxGeometry x="54" y="210" width="170" height="40" as="geometry" />
        </mxCell>
        <mxCell id="5NB1hFwePOgQbVpTFOs5-155" value="Delete a Journal" style="text;html=1;strokeColor=none;fillColor=none;align=center;verticalAlign=middle;whiteSpace=wrap;rounded=0;fontSize=14;" vertex="1" parent="5NB1hFwePOgQbVpTFOs5-40">
          <mxGeometry x="54" y="270" width="170" height="40" as="geometry" />
        </mxCell>
        <mxCell id="5NB1hFwePOgQbVpTFOs5-156" value="logo" style="text;html=1;strokeColor=none;fillColor=none;align=center;verticalAlign=middle;whiteSpace=wrap;rounded=0;fontSize=14;" vertex="1" parent="5NB1hFwePOgQbVpTFOs5-40">
          <mxGeometry x="80" y="-730" width="40" height="20" as="geometry" />
        </mxCell>
        <mxCell id="5NB1hFwePOgQbVpTFOs5-157" value="logo" style="text;html=1;strokeColor=none;fillColor=none;align=center;verticalAlign=middle;whiteSpace=wrap;rounded=0;fontSize=14;" vertex="1" parent="5NB1hFwePOgQbVpTFOs5-40">
          <mxGeometry x="79" width="40" height="20" as="geometry" />
        </mxCell>
        <mxCell id="5NB1hFwePOgQbVpTFOs5-167" value="" style="rounded=0;whiteSpace=wrap;html=1;strokeWidth=1;fontSize=33;fontColor=#000000;rotation=-90;horizontal=1;verticalAlign=bottom;" vertex="1" parent="5NB1hFwePOgQbVpTFOs5-40">
          <mxGeometry x="455" y="190" width="350" height="270" as="geometry" />
        </mxCell>
        <mxCell id="5NB1hFwePOgQbVpTFOs5-168" value="" style="triangle;whiteSpace=wrap;html=1;strokeWidth=1;fontSize=33;fontColor=#000000;" vertex="1" parent="5NB1hFwePOgQbVpTFOs5-40">
          <mxGeometry x="820" y="290" width="30" height="60" as="geometry" />
        </mxCell>
        <mxCell id="5NB1hFwePOgQbVpTFOs5-169" value="" style="triangle;whiteSpace=wrap;html=1;strokeWidth=1;fontSize=33;fontColor=#000000;rotation=-180;" vertex="1" parent="5NB1hFwePOgQbVpTFOs5-40">
          <mxGeometry x="405" y="290" width="30" height="60" as="geometry" />
        </mxCell>
        <mxCell id="5NB1hFwePOgQbVpTFOs5-171" value="" style="rounded=0;whiteSpace=wrap;html=1;strokeWidth=1;fontSize=33;fontColor=#000000;" vertex="1" parent="5NB1hFwePOgQbVpTFOs5-40">
          <mxGeometry x="240" y="50" width="800" height="70" as="geometry" />
        </mxCell>
        <mxCell id="5NB1hFwePOgQbVpTFOs5-172" value="{ journal name }" style="text;html=1;strokeColor=none;fillColor=none;align=center;verticalAlign=middle;whiteSpace=wrap;rounded=0;fontSize=13;fontColor=#000000;" vertex="1" parent="5NB1hFwePOgQbVpTFOs5-40">
          <mxGeometry x="525" y="50" width="210" height="20" as="geometry" />
        </mxCell>
        <mxCell id="5NB1hFwePOgQbVpTFOs5-173" value="Add Entry" style="rounded=1;whiteSpace=wrap;html=1;strokeWidth=1;fontSize=13;fontColor=#000000;" vertex="1" parent="5NB1hFwePOgQbVpTFOs5-40">
          <mxGeometry x="355" y="80" width="80" height="20" as="geometry" />
        </mxCell>
        <mxCell id="5NB1hFwePOgQbVpTFOs5-174" value="Delete Entry" style="rounded=1;whiteSpace=wrap;html=1;strokeWidth=1;fontSize=13;fontColor=#000000;" vertex="1" parent="5NB1hFwePOgQbVpTFOs5-40">
          <mxGeometry x="460" y="80" width="80" height="20" as="geometry" />
        </mxCell>
        <mxCell id="5NB1hFwePOgQbVpTFOs5-179" value="something here to help search entries by a date? category?" style="text;html=1;strokeColor=none;fillColor=none;align=center;verticalAlign=middle;whiteSpace=wrap;rounded=0;fontSize=13;fontColor=#000000;" vertex="1" parent="5NB1hFwePOgQbVpTFOs5-40">
          <mxGeometry x="570" y="80" width="420" height="20" as="geometry" />
        </mxCell>
        <mxCell id="5NB1hFwePOgQbVpTFOs5-186" value="" style="rounded=0;whiteSpace=wrap;html=1;strokeWidth=1;fontSize=13;fontColor=#000000;" vertex="1" parent="5NB1hFwePOgQbVpTFOs5-40">
          <mxGeometry x="510" y="170" width="120" height="90" as="geometry" />
        </mxCell>
        <mxCell id="5NB1hFwePOgQbVpTFOs5-188" value="Picture" style="text;html=1;strokeColor=none;fillColor=none;align=center;verticalAlign=middle;whiteSpace=wrap;rounded=0;fontSize=13;fontColor=#000000;" vertex="1" parent="5NB1hFwePOgQbVpTFOs5-40">
          <mxGeometry x="510" y="190" width="120" height="40" as="geometry" />
        </mxCell>
        <mxCell id="5NB1hFwePOgQbVpTFOs5-233" value="" style="rounded=0;whiteSpace=wrap;html=1;strokeWidth=1;fontSize=13;fontColor=#000000;" vertex="1" parent="5NB1hFwePOgQbVpTFOs5-40">
          <mxGeometry x="510" y="280" width="230" height="200" as="geometry" />
        </mxCell>
        <mxCell id="5NB1hFwePOgQbVpTFOs5-234" value="" style="verticalLabelPosition=bottom;shadow=0;dashed=0;align=center;html=1;verticalAlign=top;strokeWidth=1;shape=mxgraph.mockup.navigation.scrollBar;strokeColor=#999999;barPos=20;fillColor2=#99ddff;strokeColor2=none;direction=north;fontSize=13;fontColor=#000000;" vertex="1" parent="5NB1hFwePOgQbVpTFOs5-40">
          <mxGeometry x="730" y="280" width="20" height="200" as="geometry" />
        </mxCell>
        <mxCell id="5NB1hFwePOgQbVpTFOs5-241" value="&lt;h1&gt;&lt;br&gt;&lt;/h1&gt;&lt;p&gt;Lorem ipsum dolor sit amet, consectetur adipisicing elit, sed do eiusmod tempor incididunt ut labore et dolore magna aliqua.&lt;/p&gt;" style="text;html=1;strokeColor=none;fillColor=none;spacing=5;spacingTop=-20;whiteSpace=wrap;overflow=hidden;rounded=0;fontSize=13;fontColor=#000000;" vertex="1" parent="5NB1hFwePOgQbVpTFOs5-40">
          <mxGeometry x="530" y="240" width="190" height="120" as="geometry" />
        </mxCell>
        <mxCell id="5NB1hFwePOgQbVpTFOs5-242" value="" style="rounded=0;whiteSpace=wrap;html=1;strokeWidth=1;fontSize=13;fontColor=#000000;" vertex="1" parent="5NB1hFwePOgQbVpTFOs5-40">
          <mxGeometry x="640" y="190" width="110" height="20" as="geometry" />
        </mxCell>
        <mxCell id="5NB1hFwePOgQbVpTFOs5-243" value="" style="rounded=0;whiteSpace=wrap;html=1;strokeWidth=1;fontSize=13;fontColor=#000000;" vertex="1" parent="5NB1hFwePOgQbVpTFOs5-40">
          <mxGeometry x="640" y="220" width="110" height="20" as="geometry" />
        </mxCell>
        <mxCell id="5NB1hFwePOgQbVpTFOs5-244" value="Date" style="text;html=1;strokeColor=none;fillColor=none;align=center;verticalAlign=middle;whiteSpace=wrap;rounded=0;fontSize=13;fontColor=#000000;" vertex="1" parent="5NB1hFwePOgQbVpTFOs5-40">
          <mxGeometry x="674" y="190" width="40" height="20" as="geometry" />
        </mxCell>
        <mxCell id="5NB1hFwePOgQbVpTFOs5-245" value="category" style="text;html=1;strokeColor=none;fillColor=none;align=center;verticalAlign=middle;whiteSpace=wrap;rounded=0;fontSize=13;fontColor=#000000;" vertex="1" parent="5NB1hFwePOgQbVpTFOs5-40">
          <mxGeometry x="680" y="220" width="40" height="20" as="geometry" />
        </mxCell>
        <mxCell id="5NB1hFwePOgQbVpTFOs5-289" value="" style="html=1;verticalLabelPosition=bottom;align=center;labelBackgroundColor=#ffffff;verticalAlign=top;strokeWidth=2;strokeColor=#0080F0;shadow=0;dashed=0;shape=mxgraph.ios7.icons.book;fontSize=33;fontColor=#000000;" vertex="1" parent="5NB1hFwePOgQbVpTFOs5-40">
          <mxGeometry x="185" y="-1360" width="710" height="380" as="geometry" />
        </mxCell>
        <mxCell id="5NB1hFwePOgQbVpTFOs5-290" value="" style="html=1;verticalLabelPosition=bottom;align=center;labelBackgroundColor=#ffffff;verticalAlign=top;strokeWidth=2;strokeColor=#0080F0;shadow=0;dashed=0;shape=mxgraph.ios7.icons.book;fontSize=33;fontColor=#000000;" vertex="1" parent="5NB1hFwePOgQbVpTFOs5-40">
          <mxGeometry x="200" y="-1362.5" width="680" height="382.5" as="geometry" />
        </mxCell>
        <mxCell id="5NB1hFwePOgQbVpTFOs5-291" value="" style="html=1;verticalLabelPosition=bottom;align=center;labelBackgroundColor=#ffffff;verticalAlign=top;strokeWidth=2;strokeColor=#0080F0;shadow=0;dashed=0;shape=mxgraph.ios7.icons.book;fontSize=13;fontColor=#000000;" vertex="1" parent="5NB1hFwePOgQbVpTFOs5-40">
          <mxGeometry x="216" y="-1360" width="650" height="380" as="geometry" />
        </mxCell>
        <mxCell id="5NB1hFwePOgQbVpTFOs5-293" value="" style="endArrow=none;html=1;" edge="1" parent="5NB1hFwePOgQbVpTFOs5-40">
          <mxGeometry width="50" height="50" relative="1" as="geometry">
            <mxPoint x="40" y="-1480" as="sourcePoint" />
            <mxPoint x="1040" y="-1480" as="targetPoint" />
          </mxGeometry>
        </mxCell>
        <mxCell id="5NB1hFwePOgQbVpTFOs5-294" value="" style="endArrow=none;html=1;" edge="1" parent="5NB1hFwePOgQbVpTFOs5-40">
          <mxGeometry width="50" height="50" relative="1" as="geometry">
            <mxPoint x="39" y="-840" as="sourcePoint" />
            <mxPoint x="1039" y="-840" as="targetPoint" />
          </mxGeometry>
        </mxCell>
        <mxCell id="5NB1hFwePOgQbVpTFOs5-295" value="" style="endArrow=none;html=1;" edge="1" parent="5NB1hFwePOgQbVpTFOs5-40">
          <mxGeometry width="50" height="50" relative="1" as="geometry">
            <mxPoint x="39" y="-1400" as="sourcePoint" />
            <mxPoint x="1039" y="-1400" as="targetPoint" />
          </mxGeometry>
        </mxCell>
        <mxCell id="5NB1hFwePOgQbVpTFOs5-296" value="x&lt;span style=&quot;color: rgba(0 , 0 , 0 , 0) ; font-family: monospace ; font-size: 0px ; background-color: rgb(248 , 249 , 250)&quot;&gt;%3CmxGraphModel%3E%3Croot%3E%3CmxCell%20id%3D%220%22%2F%3E%3CmxCell%20id%3D%221%22%20parent%3D%220%22%2F%3E%3CmxCell%20id%3D%222%22%20value%3D%22%22%20style%3D%22endArrow%3Dnone%3Bhtml%3D1%3B%22%20edge%3D%221%22%20parent%3D%221%22%3E%3CmxGeometry%20width%3D%2250%22%20height%3D%2250%22%20relative%3D%221%22%20as%3D%22geometry%22%3E%3CmxPoint%20x%3D%2240%22%20y%3D%22-800%22%20as%3D%22sourcePoint%22%2F%3E%3CmxPoint%20x%3D%221040%22%20y%3D%22-800%22%20as%3D%22targetPoint%22%2F%3E%3C%2FmxGeometry%3E%3C%2FmxCell%3E%3C%2Froot%3E%3C%2FmxGraphModel%3E&lt;/span&gt;" style="endArrow=none;html=1;" edge="1" parent="5NB1hFwePOgQbVpTFOs5-40">
          <mxGeometry width="50" height="50" relative="1" as="geometry">
            <mxPoint x="39" y="-840" as="sourcePoint" />
            <mxPoint x="39" y="-1480" as="targetPoint" />
          </mxGeometry>
        </mxCell>
        <mxCell id="5NB1hFwePOgQbVpTFOs5-297" value="x&lt;span style=&quot;color: rgba(0 , 0 , 0 , 0) ; font-family: monospace ; font-size: 0px ; background-color: rgb(248 , 249 , 250)&quot;&gt;%3CmxGraphModel%3E%3Croot%3E%3CmxCell%20id%3D%220%22%2F%3E%3CmxCell%20id%3D%221%22%20parent%3D%220%22%2F%3E%3CmxCell%20id%3D%222%22%20value%3D%22%22%20style%3D%22endArrow%3Dnone%3Bhtml%3D1%3B%22%20edge%3D%221%22%20parent%3D%221%22%3E%3CmxGeometry%20width%3D%2250%22%20height%3D%2250%22%20relative%3D%221%22%20as%3D%22geometry%22%3E%3CmxPoint%20x%3D%2240%22%20y%3D%22-800%22%20as%3D%22sourcePoint%22%2F%3E%3CmxPoint%20x%3D%221040%22%20y%3D%22-800%22%20as%3D%22targetPoint%22%2F%3E%3C%2FmxGeometry%3E%3C%2FmxCell%3E%3C%2Froot%3E%3C%2FmxGraphModel%3E&lt;/span&gt;" style="endArrow=none;html=1;" edge="1" parent="5NB1hFwePOgQbVpTFOs5-40">
          <mxGeometry width="50" height="50" relative="1" as="geometry">
            <mxPoint x="1039" y="-840" as="sourcePoint" />
            <mxPoint x="1039" y="-1480" as="targetPoint" />
          </mxGeometry>
        </mxCell>
        <mxCell id="5NB1hFwePOgQbVpTFOs5-298" value="" style="rounded=0;whiteSpace=wrap;html=1;" vertex="1" parent="5NB1hFwePOgQbVpTFOs5-40">
          <mxGeometry x="39" y="-920" width="1000" height="80" as="geometry" />
        </mxCell>
        <mxCell id="5NB1hFwePOgQbVpTFOs5-299" value="footer" style="text;html=1;strokeColor=none;fillColor=none;align=center;verticalAlign=middle;whiteSpace=wrap;rounded=0;" vertex="1" parent="5NB1hFwePOgQbVpTFOs5-40">
          <mxGeometry x="499" y="-900" width="110" height="40" as="geometry" />
        </mxCell>
        <mxCell id="5NB1hFwePOgQbVpTFOs5-305" value="" style="ellipse;whiteSpace=wrap;html=1;aspect=fixed;" vertex="1" parent="5NB1hFwePOgQbVpTFOs5-40">
          <mxGeometry x="69" y="-1470" width="60" height="60" as="geometry" />
        </mxCell>
        <mxCell id="5NB1hFwePOgQbVpTFOs5-306" value="Project Name" style="text;html=1;strokeColor=none;fillColor=none;align=center;verticalAlign=middle;whiteSpace=wrap;rounded=0;strokeWidth=6;fontSize=34;" vertex="1" parent="5NB1hFwePOgQbVpTFOs5-40">
          <mxGeometry x="139" y="-1480" width="210" height="80" as="geometry" />
        </mxCell>
        <mxCell id="5NB1hFwePOgQbVpTFOs5-311" value="logo" style="text;html=1;strokeColor=none;fillColor=none;align=center;verticalAlign=middle;whiteSpace=wrap;rounded=0;fontSize=14;" vertex="1" parent="5NB1hFwePOgQbVpTFOs5-40">
          <mxGeometry x="79" y="-1450" width="40" height="20" as="geometry" />
        </mxCell>
        <mxCell id="5NB1hFwePOgQbVpTFOs5-353" value="" style="strokeWidth=1;shadow=0;dashed=0;align=center;html=1;shape=mxgraph.mockup.forms.rrect;rSize=0;strokeColor=#999999;fillColor=#ffffff;fontSize=13;fontColor=#000000;" vertex="1" parent="5NB1hFwePOgQbVpTFOs5-40">
          <mxGeometry x="281" y="-1330" width="200" height="300" as="geometry" />
        </mxCell>
        <mxCell id="5NB1hFwePOgQbVpTFOs5-354" value="Sign In" style="strokeWidth=1;shadow=0;dashed=0;align=center;html=1;shape=mxgraph.mockup.forms.anchor;fontSize=12;fontColor=#666666;align=left;resizeWidth=1;spacingLeft=0;" vertex="1" parent="5NB1hFwePOgQbVpTFOs5-353">
          <mxGeometry width="100" height="20" relative="1" as="geometry">
            <mxPoint x="10" y="10" as="offset" />
          </mxGeometry>
        </mxCell>
        <mxCell id="5NB1hFwePOgQbVpTFOs5-355" value="" style="shape=line;strokeColor=#ddeeff;strokeWidth=2;html=1;resizeWidth=1;" vertex="1" parent="5NB1hFwePOgQbVpTFOs5-353">
          <mxGeometry width="180" height="10" relative="1" as="geometry">
            <mxPoint x="10" y="30" as="offset" />
          </mxGeometry>
        </mxCell>
        <mxCell id="5NB1hFwePOgQbVpTFOs5-356" value="User Name:" style="strokeWidth=1;shadow=0;dashed=0;align=center;html=1;shape=mxgraph.mockup.forms.anchor;fontSize=12;fontColor=#666666;align=left;resizeWidth=1;spacingLeft=0;" vertex="1" parent="5NB1hFwePOgQbVpTFOs5-353">
          <mxGeometry width="100" height="20" relative="1" as="geometry">
            <mxPoint x="10" y="40" as="offset" />
          </mxGeometry>
        </mxCell>
        <mxCell id="5NB1hFwePOgQbVpTFOs5-357" value="johndoe" style="strokeWidth=1;shadow=0;dashed=0;align=center;html=1;shape=mxgraph.mockup.forms.rrect;rSize=0;strokeColor=#999999;fontColor=#666666;align=left;spacingLeft=5;resizeWidth=1;" vertex="1" parent="5NB1hFwePOgQbVpTFOs5-353">
          <mxGeometry width="150" height="25" relative="1" as="geometry">
            <mxPoint x="10" y="60" as="offset" />
          </mxGeometry>
        </mxCell>
        <mxCell id="5NB1hFwePOgQbVpTFOs5-358" value="Password:" style="strokeWidth=1;shadow=0;dashed=0;align=center;html=1;shape=mxgraph.mockup.forms.anchor;fontSize=12;fontColor=#666666;align=left;resizeWidth=1;spacingLeft=0;" vertex="1" parent="5NB1hFwePOgQbVpTFOs5-353">
          <mxGeometry width="100" height="20" relative="1" as="geometry">
            <mxPoint x="10" y="95" as="offset" />
          </mxGeometry>
        </mxCell>
        <mxCell id="5NB1hFwePOgQbVpTFOs5-359" value="********" style="strokeWidth=1;shadow=0;dashed=0;align=center;html=1;shape=mxgraph.mockup.forms.rrect;rSize=0;strokeColor=#999999;fontColor=#666666;align=left;spacingLeft=5;resizeWidth=1;" vertex="1" parent="5NB1hFwePOgQbVpTFOs5-353">
          <mxGeometry width="150" height="25" relative="1" as="geometry">
            <mxPoint x="10" y="115" as="offset" />
          </mxGeometry>
        </mxCell>
        <mxCell id="5NB1hFwePOgQbVpTFOs5-360" value="SIGN IN" style="strokeWidth=1;shadow=0;dashed=0;align=center;html=1;shape=mxgraph.mockup.forms.rrect;rSize=5;strokeColor=none;fontColor=#ffffff;fillColor=#66bbff;fontSize=16;fontStyle=1;" vertex="1" parent="5NB1hFwePOgQbVpTFOs5-353">
          <mxGeometry y="1" width="80" height="30" relative="1" as="geometry">
            <mxPoint x="20" y="-150" as="offset" />
          </mxGeometry>
        </mxCell>
        <mxCell id="5NB1hFwePOgQbVpTFOs5-361" value="Forgot Password?" style="strokeWidth=1;shadow=0;dashed=0;align=center;html=1;shape=mxgraph.mockup.forms.anchor;fontSize=12;fontColor=#9999ff;align=left;spacingLeft=0;fontStyle=4;resizeWidth=1;" vertex="1" parent="5NB1hFwePOgQbVpTFOs5-353">
          <mxGeometry y="1" width="150" height="20" relative="1" as="geometry">
            <mxPoint x="10" y="-110" as="offset" />
          </mxGeometry>
        </mxCell>
        <mxCell id="5NB1hFwePOgQbVpTFOs5-362" value="" style="shape=line;strokeColor=#ddeeff;strokeWidth=2;html=1;resizeWidth=1;" vertex="1" parent="5NB1hFwePOgQbVpTFOs5-353">
          <mxGeometry y="1" width="180" height="10" relative="1" as="geometry">
            <mxPoint x="10" y="-90" as="offset" />
          </mxGeometry>
        </mxCell>
        <mxCell id="5NB1hFwePOgQbVpTFOs5-363" value="" style="strokeWidth=1;shadow=0;dashed=0;align=center;html=1;shape=mxgraph.mockup.forms.anchor;fontSize=12;fontColor=#666666;align=left;spacingLeft=0;resizeWidth=1;" vertex="1" parent="5NB1hFwePOgQbVpTFOs5-353">
          <mxGeometry y="1" width="150" height="20" relative="1" as="geometry">
            <mxPoint x="10" y="-70" as="offset" />
          </mxGeometry>
        </mxCell>
        <mxCell id="5NB1hFwePOgQbVpTFOs5-365" value="" style="strokeWidth=1;shadow=0;dashed=0;align=center;html=1;shape=mxgraph.mockup.forms.rrect;rSize=0;strokeColor=#999999;fillColor=#ffffff;fontSize=13;fontColor=#000000;" vertex="1" parent="5NB1hFwePOgQbVpTFOs5-40">
          <mxGeometry x="621" y="-1330" width="200" height="300" as="geometry" />
        </mxCell>
        <mxCell id="5NB1hFwePOgQbVpTFOs5-366" value="Sign Up" style="strokeWidth=1;shadow=0;dashed=0;align=center;html=1;shape=mxgraph.mockup.forms.anchor;fontSize=12;fontColor=#666666;align=left;resizeWidth=1;spacingLeft=0;" vertex="1" parent="5NB1hFwePOgQbVpTFOs5-365">
          <mxGeometry width="100" height="20" relative="1" as="geometry">
            <mxPoint x="10" y="10" as="offset" />
          </mxGeometry>
        </mxCell>
        <mxCell id="5NB1hFwePOgQbVpTFOs5-367" value="" style="shape=line;strokeColor=#ddeeff;strokeWidth=2;html=1;resizeWidth=1;" vertex="1" parent="5NB1hFwePOgQbVpTFOs5-365">
          <mxGeometry width="180" height="10" relative="1" as="geometry">
            <mxPoint x="10" y="30" as="offset" />
          </mxGeometry>
        </mxCell>
        <mxCell id="5NB1hFwePOgQbVpTFOs5-368" value="User Name:" style="strokeWidth=1;shadow=0;dashed=0;align=center;html=1;shape=mxgraph.mockup.forms.anchor;fontSize=12;fontColor=#666666;align=left;resizeWidth=1;spacingLeft=0;" vertex="1" parent="5NB1hFwePOgQbVpTFOs5-365">
          <mxGeometry width="100" height="20" relative="1" as="geometry">
            <mxPoint x="10" y="40" as="offset" />
          </mxGeometry>
        </mxCell>
        <mxCell id="5NB1hFwePOgQbVpTFOs5-369" value="johndoe" style="strokeWidth=1;shadow=0;dashed=0;align=center;html=1;shape=mxgraph.mockup.forms.rrect;rSize=0;strokeColor=#999999;fontColor=#666666;align=left;spacingLeft=5;resizeWidth=1;" vertex="1" parent="5NB1hFwePOgQbVpTFOs5-365">
          <mxGeometry width="150" height="25" relative="1" as="geometry">
            <mxPoint x="10" y="60" as="offset" />
          </mxGeometry>
        </mxCell>
        <mxCell id="5NB1hFwePOgQbVpTFOs5-370" value="Password:" style="strokeWidth=1;shadow=0;dashed=0;align=center;html=1;shape=mxgraph.mockup.forms.anchor;fontSize=12;fontColor=#666666;align=left;resizeWidth=1;spacingLeft=0;" vertex="1" parent="5NB1hFwePOgQbVpTFOs5-365">
          <mxGeometry width="100" height="20" relative="1" as="geometry">
            <mxPoint x="10" y="95" as="offset" />
          </mxGeometry>
        </mxCell>
        <mxCell id="5NB1hFwePOgQbVpTFOs5-371" value="********" style="strokeWidth=1;shadow=0;dashed=0;align=center;html=1;shape=mxgraph.mockup.forms.rrect;rSize=0;strokeColor=#999999;fontColor=#666666;align=left;spacingLeft=5;resizeWidth=1;" vertex="1" parent="5NB1hFwePOgQbVpTFOs5-365">
          <mxGeometry width="150" height="25" relative="1" as="geometry">
            <mxPoint x="10" y="115" as="offset" />
          </mxGeometry>
        </mxCell>
        <mxCell id="5NB1hFwePOgQbVpTFOs5-372" value="Sign Up" style="strokeWidth=1;shadow=0;dashed=0;align=center;html=1;shape=mxgraph.mockup.forms.rrect;rSize=5;strokeColor=none;fontColor=#ffffff;fillColor=#66bbff;fontSize=16;fontStyle=1;" vertex="1" parent="5NB1hFwePOgQbVpTFOs5-365">
          <mxGeometry y="1" width="80" height="30" relative="1" as="geometry">
            <mxPoint x="20" y="-150" as="offset" />
          </mxGeometry>
        </mxCell>
        <mxCell id="5NB1hFwePOgQbVpTFOs5-373" value="Forgot Password?" style="strokeWidth=1;shadow=0;dashed=0;align=center;html=1;shape=mxgraph.mockup.forms.anchor;fontSize=12;fontColor=#9999ff;align=left;spacingLeft=0;fontStyle=4;resizeWidth=1;" vertex="1" parent="5NB1hFwePOgQbVpTFOs5-365">
          <mxGeometry y="1" width="150" height="20" relative="1" as="geometry">
            <mxPoint x="10" y="-110" as="offset" />
          </mxGeometry>
        </mxCell>
        <mxCell id="5NB1hFwePOgQbVpTFOs5-374" value="" style="shape=line;strokeColor=#ddeeff;strokeWidth=2;html=1;resizeWidth=1;" vertex="1" parent="5NB1hFwePOgQbVpTFOs5-365">
          <mxGeometry y="1" width="180" height="10" relative="1" as="geometry">
            <mxPoint x="10" y="-90" as="offset" />
          </mxGeometry>
        </mxCell>
        <mxCell id="5NB1hFwePOgQbVpTFOs5-375" value="" style="strokeWidth=1;shadow=0;dashed=0;align=center;html=1;shape=mxgraph.mockup.forms.anchor;fontSize=12;fontColor=#666666;align=left;spacingLeft=0;resizeWidth=1;" vertex="1" parent="5NB1hFwePOgQbVpTFOs5-365">
          <mxGeometry y="1" width="150" height="20" relative="1" as="geometry">
            <mxPoint x="10" y="-70" as="offset" />
          </mxGeometry>
        </mxCell>
        <mxCell id="5NB1hFwePOgQbVpTFOs5-377" value="or" style="text;html=1;strokeColor=none;fillColor=none;align=center;verticalAlign=middle;whiteSpace=wrap;rounded=0;fontSize=13;fontColor=#000000;" vertex="1" parent="5NB1hFwePOgQbVpTFOs5-40">
          <mxGeometry x="520" y="-1390" width="40" height="20" as="geometry" />
        </mxCell>
        <mxCell id="5NB1hFwePOgQbVpTFOs5-378" value="" style="rounded=1;whiteSpace=wrap;html=1;strokeWidth=1;fontSize=13;fontColor=#000000;" vertex="1" parent="5NB1hFwePOgQbVpTFOs5-40">
          <mxGeometry x="800" y="-1460" width="145" height="40" as="geometry" />
        </mxCell>
        <mxCell id="5NB1hFwePOgQbVpTFOs5-379" value="Demo Login" style="text;html=1;strokeColor=none;fillColor=none;align=center;verticalAlign=middle;whiteSpace=wrap;rounded=0;fontSize=13;fontColor=#000000;" vertex="1" parent="5NB1hFwePOgQbVpTFOs5-40">
          <mxGeometry x="809" y="-1450" width="130" height="20" as="geometry" />
        </mxCell>
        <mxCell id="5NB1hFwePOgQbVpTFOs5-385" value="" style="rounded=1;whiteSpace=wrap;html=1;strokeWidth=1;fontSize=13;fontColor=#000000;" vertex="1" parent="5NB1hFwePOgQbVpTFOs5-40">
          <mxGeometry x="80" y="327.5" width="121" height="40" as="geometry" />
        </mxCell>
        <mxCell id="5NB1hFwePOgQbVpTFOs5-386" value="Log Out" style="text;html=1;strokeColor=none;fillColor=none;align=center;verticalAlign=middle;whiteSpace=wrap;rounded=0;fontSize=14;" vertex="1" parent="5NB1hFwePOgQbVpTFOs5-40">
          <mxGeometry x="101" y="327.5" width="76" height="40" as="geometry" />
        </mxCell>
        <mxCell id="5NB1hFwePOgQbVpTFOs5-432" value="Search" style="strokeWidth=1;shadow=0;align=center;html=1;shape=mxgraph.mockup.forms.searchBox;strokeColor=#999999;mainText=;strokeColor2=#008cff;fontColor=#666666;fontSize=17;align=left;spacingLeft=3;rounded=0;labelBackgroundColor=none;comic=1;" vertex="1" parent="5NB1hFwePOgQbVpTFOs5-40">
          <mxGeometry x="740" y="740" width="290" height="30" as="geometry" />
        </mxCell>
        <mxCell id="5NB1hFwePOgQbVpTFOs5-433" value="" style="endArrow=none;html=1;" edge="1" parent="5NB1hFwePOgQbVpTFOs5-40">
          <mxGeometry width="50" height="50" relative="1" as="geometry">
            <mxPoint x="50" y="720" as="sourcePoint" />
            <mxPoint x="1050" y="720" as="targetPoint" />
          </mxGeometry>
        </mxCell>
        <mxCell id="5NB1hFwePOgQbVpTFOs5-434" value="" style="endArrow=none;html=1;" edge="1" parent="5NB1hFwePOgQbVpTFOs5-40">
          <mxGeometry width="50" height="50" relative="1" as="geometry">
            <mxPoint x="50" y="1360" as="sourcePoint" />
            <mxPoint x="1050" y="1360" as="targetPoint" />
          </mxGeometry>
        </mxCell>
        <mxCell id="5NB1hFwePOgQbVpTFOs5-435" value="" style="endArrow=none;html=1;" edge="1" parent="5NB1hFwePOgQbVpTFOs5-40">
          <mxGeometry width="50" height="50" relative="1" as="geometry">
            <mxPoint x="50" y="800" as="sourcePoint" />
            <mxPoint x="1050" y="800" as="targetPoint" />
          </mxGeometry>
        </mxCell>
        <mxCell id="5NB1hFwePOgQbVpTFOs5-436" value="x&lt;span style=&quot;color: rgba(0 , 0 , 0 , 0) ; font-family: monospace ; font-size: 0px ; background-color: rgb(248 , 249 , 250)&quot;&gt;%3CmxGraphModel%3E%3Croot%3E%3CmxCell%20id%3D%220%22%2F%3E%3CmxCell%20id%3D%221%22%20parent%3D%220%22%2F%3E%3CmxCell%20id%3D%222%22%20value%3D%22%22%20style%3D%22endArrow%3Dnone%3Bhtml%3D1%3B%22%20edge%3D%221%22%20parent%3D%221%22%3E%3CmxGeometry%20width%3D%2250%22%20height%3D%2250%22%20relative%3D%221%22%20as%3D%22geometry%22%3E%3CmxPoint%20x%3D%2240%22%20y%3D%22-800%22%20as%3D%22sourcePoint%22%2F%3E%3CmxPoint%20x%3D%221040%22%20y%3D%22-800%22%20as%3D%22targetPoint%22%2F%3E%3C%2FmxGeometry%3E%3C%2FmxCell%3E%3C%2Froot%3E%3C%2FmxGraphModel%3E&lt;/span&gt;" style="endArrow=none;html=1;" edge="1" parent="5NB1hFwePOgQbVpTFOs5-40">
          <mxGeometry width="50" height="50" relative="1" as="geometry">
            <mxPoint x="50" y="1360" as="sourcePoint" />
            <mxPoint x="50" y="720" as="targetPoint" />
          </mxGeometry>
        </mxCell>
        <mxCell id="5NB1hFwePOgQbVpTFOs5-437" value="x&lt;span style=&quot;color: rgba(0 , 0 , 0 , 0) ; font-family: monospace ; font-size: 0px ; background-color: rgb(248 , 249 , 250)&quot;&gt;%3CmxGraphModel%3E%3Croot%3E%3CmxCell%20id%3D%220%22%2F%3E%3CmxCell%20id%3D%221%22%20parent%3D%220%22%2F%3E%3CmxCell%20id%3D%222%22%20value%3D%22%22%20style%3D%22endArrow%3Dnone%3Bhtml%3D1%3B%22%20edge%3D%221%22%20parent%3D%221%22%3E%3CmxGeometry%20width%3D%2250%22%20height%3D%2250%22%20relative%3D%221%22%20as%3D%22geometry%22%3E%3CmxPoint%20x%3D%2240%22%20y%3D%22-800%22%20as%3D%22sourcePoint%22%2F%3E%3CmxPoint%20x%3D%221040%22%20y%3D%22-800%22%20as%3D%22targetPoint%22%2F%3E%3C%2FmxGeometry%3E%3C%2FmxCell%3E%3C%2Froot%3E%3C%2FmxGraphModel%3E&lt;/span&gt;" style="endArrow=none;html=1;" edge="1" parent="5NB1hFwePOgQbVpTFOs5-40">
          <mxGeometry width="50" height="50" relative="1" as="geometry">
            <mxPoint x="1050" y="1360" as="sourcePoint" />
            <mxPoint x="1050" y="720" as="targetPoint" />
          </mxGeometry>
        </mxCell>
        <mxCell id="5NB1hFwePOgQbVpTFOs5-438" value="" style="rounded=0;whiteSpace=wrap;html=1;" vertex="1" parent="5NB1hFwePOgQbVpTFOs5-40">
          <mxGeometry x="50" y="1280" width="1000" height="80" as="geometry" />
        </mxCell>
        <mxCell id="5NB1hFwePOgQbVpTFOs5-439" value="footer" style="text;html=1;strokeColor=none;fillColor=none;align=center;verticalAlign=middle;whiteSpace=wrap;rounded=0;" vertex="1" parent="5NB1hFwePOgQbVpTFOs5-40">
          <mxGeometry x="510" y="1300" width="110" height="40" as="geometry" />
        </mxCell>
        <mxCell id="5NB1hFwePOgQbVpTFOs5-440" value="" style="rounded=0;whiteSpace=wrap;html=1;rotation=-90;" vertex="1" parent="5NB1hFwePOgQbVpTFOs5-40">
          <mxGeometry x="-90" y="940" width="480" height="200" as="geometry" />
        </mxCell>
        <mxCell id="5NB1hFwePOgQbVpTFOs5-441" value="" style="rounded=1;whiteSpace=wrap;html=1;" vertex="1" parent="5NB1hFwePOgQbVpTFOs5-40">
          <mxGeometry x="90" y="840" width="120" height="40" as="geometry" />
        </mxCell>
        <mxCell id="5NB1hFwePOgQbVpTFOs5-442" value="" style="rounded=1;whiteSpace=wrap;html=1;" vertex="1" parent="5NB1hFwePOgQbVpTFOs5-40">
          <mxGeometry x="90" y="900" width="120" height="40" as="geometry" />
        </mxCell>
        <mxCell id="5NB1hFwePOgQbVpTFOs5-443" value="" style="rounded=1;whiteSpace=wrap;html=1;" vertex="1" parent="5NB1hFwePOgQbVpTFOs5-40">
          <mxGeometry x="90" y="960" width="120" height="40" as="geometry" />
        </mxCell>
        <mxCell id="5NB1hFwePOgQbVpTFOs5-444" value="" style="rounded=1;whiteSpace=wrap;html=1;" vertex="1" parent="5NB1hFwePOgQbVpTFOs5-40">
          <mxGeometry x="90" y="1020" width="120" height="40" as="geometry" />
        </mxCell>
        <mxCell id="5NB1hFwePOgQbVpTFOs5-445" value="" style="ellipse;whiteSpace=wrap;html=1;aspect=fixed;" vertex="1" parent="5NB1hFwePOgQbVpTFOs5-40">
          <mxGeometry x="80" y="730" width="60" height="60" as="geometry" />
        </mxCell>
        <mxCell id="5NB1hFwePOgQbVpTFOs5-446" value="Project Name" style="text;html=1;strokeColor=none;fillColor=none;align=center;verticalAlign=middle;whiteSpace=wrap;rounded=0;strokeWidth=6;fontSize=34;" vertex="1" parent="5NB1hFwePOgQbVpTFOs5-40">
          <mxGeometry x="150" y="720" width="210" height="80" as="geometry" />
        </mxCell>
        <mxCell id="5NB1hFwePOgQbVpTFOs5-447" value="Add a Journal" style="text;html=1;strokeColor=none;fillColor=none;align=center;verticalAlign=middle;whiteSpace=wrap;rounded=0;fontSize=14;" vertex="1" parent="5NB1hFwePOgQbVpTFOs5-40">
          <mxGeometry x="65" y="900" width="170" height="40" as="geometry" />
        </mxCell>
        <mxCell id="5NB1hFwePOgQbVpTFOs5-448" value="History" style="text;html=1;strokeColor=none;fillColor=none;align=center;verticalAlign=middle;whiteSpace=wrap;rounded=0;fontSize=14;" vertex="1" parent="5NB1hFwePOgQbVpTFOs5-40">
          <mxGeometry x="65" y="840" width="170" height="40" as="geometry" />
        </mxCell>
        <mxCell id="5NB1hFwePOgQbVpTFOs5-449" value="Edit a Journal" style="text;html=1;strokeColor=none;fillColor=none;align=center;verticalAlign=middle;whiteSpace=wrap;rounded=0;fontSize=14;" vertex="1" parent="5NB1hFwePOgQbVpTFOs5-40">
          <mxGeometry x="65" y="960" width="170" height="40" as="geometry" />
        </mxCell>
        <mxCell id="5NB1hFwePOgQbVpTFOs5-450" value="Delete a Journal" style="text;html=1;strokeColor=none;fillColor=none;align=center;verticalAlign=middle;whiteSpace=wrap;rounded=0;fontSize=14;" vertex="1" parent="5NB1hFwePOgQbVpTFOs5-40">
          <mxGeometry x="65" y="1020" width="170" height="40" as="geometry" />
        </mxCell>
        <mxCell id="5NB1hFwePOgQbVpTFOs5-451" value="logo" style="text;html=1;strokeColor=none;fillColor=none;align=center;verticalAlign=middle;whiteSpace=wrap;rounded=0;fontSize=14;" vertex="1" parent="5NB1hFwePOgQbVpTFOs5-40">
          <mxGeometry x="90" y="750" width="40" height="20" as="geometry" />
        </mxCell>
        <mxCell id="5NB1hFwePOgQbVpTFOs5-469" value="" style="rounded=1;whiteSpace=wrap;html=1;strokeWidth=1;fontSize=13;fontColor=#000000;" vertex="1" parent="5NB1hFwePOgQbVpTFOs5-40">
          <mxGeometry x="91" y="1077.5" width="121" height="40" as="geometry" />
        </mxCell>
        <mxCell id="5NB1hFwePOgQbVpTFOs5-470" value="Log Out" style="text;html=1;strokeColor=none;fillColor=none;align=center;verticalAlign=middle;whiteSpace=wrap;rounded=0;fontSize=14;" vertex="1" parent="5NB1hFwePOgQbVpTFOs5-40">
          <mxGeometry x="65" y="1077.5" width="170" height="40" as="geometry" />
        </mxCell>
        <mxCell id="5NB1hFwePOgQbVpTFOs5-471" value="" style="rounded=1;whiteSpace=wrap;html=1;strokeWidth=1;fontSize=13;fillColor=#fff2cc;strokeColor=#d6b656;" vertex="1" parent="5NB1hFwePOgQbVpTFOs5-40">
          <mxGeometry x="81" y="-400" width="119" height="40" as="geometry" />
        </mxCell>
        <mxCell id="5NB1hFwePOgQbVpTFOs5-511" value="" style="rounded=1;whiteSpace=wrap;html=1;strokeWidth=1;fontSize=13;fontColor=#000000;rotation=-90;" vertex="1" parent="5NB1hFwePOgQbVpTFOs5-40">
          <mxGeometry x="297.5" y="837.5" width="105" height="80" as="geometry" />
        </mxCell>
        <mxCell id="5NB1hFwePOgQbVpTFOs5-513" value="" style="rounded=1;whiteSpace=wrap;html=1;strokeWidth=1;fontSize=13;fontColor=#000000;" vertex="1" parent="5NB1hFwePOgQbVpTFOs5-40">
          <mxGeometry x="320" y="910" width="70" height="20" as="geometry" />
        </mxCell>
        <mxCell id="5NB1hFwePOgQbVpTFOs5-514" value="{Journal Name}" style="text;html=1;strokeColor=none;fillColor=none;align=center;verticalAlign=middle;whiteSpace=wrap;rounded=0;fontSize=13;fontColor=#000000;" vertex="1" parent="5NB1hFwePOgQbVpTFOs5-40">
          <mxGeometry x="275" y="940" width="150" height="20" as="geometry" />
        </mxCell>
        <mxCell id="5NB1hFwePOgQbVpTFOs5-515" value="category: { Journal Category }" style="text;html=1;strokeColor=none;fillColor=none;align=center;verticalAlign=middle;whiteSpace=wrap;rounded=0;fontSize=13;fontColor=#000000;" vertex="1" parent="5NB1hFwePOgQbVpTFOs5-40">
          <mxGeometry x="250" y="960" width="210" height="20" as="geometry" />
        </mxCell>
        <mxCell id="5NB1hFwePOgQbVpTFOs5-517" value="" style="endArrow=none;html=1;fontSize=13;fontColor=#000000;entryX=0.75;entryY=1;entryDx=0;entryDy=0;exitX=0.75;exitY=0;exitDx=0;exitDy=0;" edge="1" parent="5NB1hFwePOgQbVpTFOs5-40" source="5NB1hFwePOgQbVpTFOs5-511" target="5NB1hFwePOgQbVpTFOs5-511">
          <mxGeometry width="50" height="50" relative="1" as="geometry">
            <mxPoint x="315" y="850" as="sourcePoint" />
            <mxPoint x="385" y="850" as="targetPoint" />
          </mxGeometry>
        </mxCell>
        <mxCell id="5NB1hFwePOgQbVpTFOs5-518" value="" style="endArrow=none;html=1;fontSize=13;fontColor=#000000;entryX=0.75;entryY=1;entryDx=0;entryDy=0;exitX=0.75;exitY=0;exitDx=0;exitDy=0;" edge="1" parent="5NB1hFwePOgQbVpTFOs5-40">
          <mxGeometry width="50" height="50" relative="1" as="geometry">
            <mxPoint x="310" y="859.5" as="sourcePoint" />
            <mxPoint x="390" y="859.5" as="targetPoint" />
          </mxGeometry>
        </mxCell>
        <mxCell id="5NB1hFwePOgQbVpTFOs5-519" value="" style="endArrow=none;html=1;fontSize=13;fontColor=#000000;entryX=0.994;entryY=0.12;entryDx=0;entryDy=0;entryPerimeter=0;" edge="1" parent="5NB1hFwePOgQbVpTFOs5-40" target="5NB1hFwePOgQbVpTFOs5-511">
          <mxGeometry width="50" height="50" relative="1" as="geometry">
            <mxPoint x="320" y="930" as="sourcePoint" />
            <mxPoint x="320" y="830" as="targetPoint" />
          </mxGeometry>
        </mxCell>
        <mxCell id="5NB1hFwePOgQbVpTFOs5-544" value="" style="rounded=1;whiteSpace=wrap;html=1;strokeWidth=1;fontSize=13;fontColor=#000000;rotation=-90;" vertex="1" parent="5NB1hFwePOgQbVpTFOs5-40">
          <mxGeometry x="562.5" y="837.5" width="105" height="80" as="geometry" />
        </mxCell>
        <mxCell id="5NB1hFwePOgQbVpTFOs5-545" value="" style="rounded=1;whiteSpace=wrap;html=1;strokeWidth=1;fontSize=13;fontColor=#000000;" vertex="1" parent="5NB1hFwePOgQbVpTFOs5-40">
          <mxGeometry x="585" y="910" width="70" height="20" as="geometry" />
        </mxCell>
        <mxCell id="5NB1hFwePOgQbVpTFOs5-546" value="{Journal Name}" style="text;html=1;strokeColor=none;fillColor=none;align=center;verticalAlign=middle;whiteSpace=wrap;rounded=0;fontSize=13;fontColor=#000000;" vertex="1" parent="5NB1hFwePOgQbVpTFOs5-40">
          <mxGeometry x="540" y="940" width="150" height="20" as="geometry" />
        </mxCell>
        <mxCell id="5NB1hFwePOgQbVpTFOs5-547" value="" style="endArrow=none;html=1;fontSize=13;fontColor=#000000;entryX=0.75;entryY=1;entryDx=0;entryDy=0;exitX=0.75;exitY=0;exitDx=0;exitDy=0;" edge="1" parent="5NB1hFwePOgQbVpTFOs5-40" source="5NB1hFwePOgQbVpTFOs5-544" target="5NB1hFwePOgQbVpTFOs5-544">
          <mxGeometry width="50" height="50" relative="1" as="geometry">
            <mxPoint x="580" y="850" as="sourcePoint" />
            <mxPoint x="650" y="850" as="targetPoint" />
          </mxGeometry>
        </mxCell>
        <mxCell id="5NB1hFwePOgQbVpTFOs5-548" value="" style="endArrow=none;html=1;fontSize=13;fontColor=#000000;entryX=0.75;entryY=1;entryDx=0;entryDy=0;exitX=0.75;exitY=0;exitDx=0;exitDy=0;" edge="1" parent="5NB1hFwePOgQbVpTFOs5-40">
          <mxGeometry width="50" height="50" relative="1" as="geometry">
            <mxPoint x="575" y="859.5" as="sourcePoint" />
            <mxPoint x="655" y="859.5" as="targetPoint" />
          </mxGeometry>
        </mxCell>
        <mxCell id="5NB1hFwePOgQbVpTFOs5-549" value="" style="endArrow=none;html=1;fontSize=13;fontColor=#000000;entryX=0.994;entryY=0.12;entryDx=0;entryDy=0;entryPerimeter=0;" edge="1" parent="5NB1hFwePOgQbVpTFOs5-40" target="5NB1hFwePOgQbVpTFOs5-544">
          <mxGeometry width="50" height="50" relative="1" as="geometry">
            <mxPoint x="585" y="930" as="sourcePoint" />
            <mxPoint x="585" y="830" as="targetPoint" />
          </mxGeometry>
        </mxCell>
        <mxCell id="5NB1hFwePOgQbVpTFOs5-550" value="" style="rounded=1;whiteSpace=wrap;html=1;strokeWidth=1;fontSize=13;fontColor=#000000;rotation=-90;" vertex="1" parent="5NB1hFwePOgQbVpTFOs5-40">
          <mxGeometry x="843.5" y="837.5" width="105" height="80" as="geometry" />
        </mxCell>
        <mxCell id="5NB1hFwePOgQbVpTFOs5-551" value="" style="rounded=1;whiteSpace=wrap;html=1;strokeWidth=1;fontSize=13;fontColor=#000000;" vertex="1" parent="5NB1hFwePOgQbVpTFOs5-40">
          <mxGeometry x="866" y="910" width="70" height="20" as="geometry" />
        </mxCell>
        <mxCell id="5NB1hFwePOgQbVpTFOs5-552" value="{Journal Name}" style="text;html=1;strokeColor=none;fillColor=none;align=center;verticalAlign=middle;whiteSpace=wrap;rounded=0;fontSize=13;fontColor=#000000;" vertex="1" parent="5NB1hFwePOgQbVpTFOs5-40">
          <mxGeometry x="821" y="940" width="150" height="20" as="geometry" />
        </mxCell>
        <mxCell id="5NB1hFwePOgQbVpTFOs5-553" value="" style="endArrow=none;html=1;fontSize=13;fontColor=#000000;entryX=0.75;entryY=1;entryDx=0;entryDy=0;exitX=0.75;exitY=0;exitDx=0;exitDy=0;" edge="1" parent="5NB1hFwePOgQbVpTFOs5-40" source="5NB1hFwePOgQbVpTFOs5-550" target="5NB1hFwePOgQbVpTFOs5-550">
          <mxGeometry width="50" height="50" relative="1" as="geometry">
            <mxPoint x="861" y="850" as="sourcePoint" />
            <mxPoint x="931" y="850" as="targetPoint" />
          </mxGeometry>
        </mxCell>
        <mxCell id="5NB1hFwePOgQbVpTFOs5-554" value="" style="endArrow=none;html=1;fontSize=13;fontColor=#000000;entryX=0.75;entryY=1;entryDx=0;entryDy=0;exitX=0.75;exitY=0;exitDx=0;exitDy=0;" edge="1" parent="5NB1hFwePOgQbVpTFOs5-40">
          <mxGeometry width="50" height="50" relative="1" as="geometry">
            <mxPoint x="856" y="859.5" as="sourcePoint" />
            <mxPoint x="936" y="859.5" as="targetPoint" />
          </mxGeometry>
        </mxCell>
        <mxCell id="5NB1hFwePOgQbVpTFOs5-555" value="" style="endArrow=none;html=1;fontSize=13;fontColor=#000000;entryX=0.994;entryY=0.12;entryDx=0;entryDy=0;entryPerimeter=0;" edge="1" parent="5NB1hFwePOgQbVpTFOs5-40" target="5NB1hFwePOgQbVpTFOs5-550">
          <mxGeometry width="50" height="50" relative="1" as="geometry">
            <mxPoint x="866" y="930" as="sourcePoint" />
            <mxPoint x="866" y="830" as="targetPoint" />
          </mxGeometry>
        </mxCell>
        <mxCell id="5NB1hFwePOgQbVpTFOs5-556" value="category: { Journal Category }" style="text;html=1;strokeColor=none;fillColor=none;align=center;verticalAlign=middle;whiteSpace=wrap;rounded=0;fontSize=13;fontColor=#000000;" vertex="1" parent="5NB1hFwePOgQbVpTFOs5-40">
          <mxGeometry x="515" y="960" width="210" height="20" as="geometry" />
        </mxCell>
        <mxCell id="5NB1hFwePOgQbVpTFOs5-557" value="category: { Journal Category }" style="text;html=1;strokeColor=none;fillColor=none;align=center;verticalAlign=middle;whiteSpace=wrap;rounded=0;fontSize=13;fontColor=#000000;" vertex="1" parent="5NB1hFwePOgQbVpTFOs5-40">
          <mxGeometry x="791" y="960" width="210" height="20" as="geometry" />
        </mxCell>
        <mxCell id="5NB1hFwePOgQbVpTFOs5-558" value="" style="rounded=1;whiteSpace=wrap;html=1;strokeWidth=1;fontSize=13;fontColor=#000000;rotation=-90;" vertex="1" parent="5NB1hFwePOgQbVpTFOs5-40">
          <mxGeometry x="303.5" y="1051.87" width="105" height="80" as="geometry" />
        </mxCell>
        <mxCell id="5NB1hFwePOgQbVpTFOs5-559" value="" style="rounded=1;whiteSpace=wrap;html=1;strokeWidth=1;fontSize=13;fontColor=#000000;" vertex="1" parent="5NB1hFwePOgQbVpTFOs5-40">
          <mxGeometry x="326" y="1124.37" width="70" height="20" as="geometry" />
        </mxCell>
        <mxCell id="5NB1hFwePOgQbVpTFOs5-560" value="{Journal Name}" style="text;html=1;strokeColor=none;fillColor=none;align=center;verticalAlign=middle;whiteSpace=wrap;rounded=0;fontSize=13;fontColor=#000000;" vertex="1" parent="5NB1hFwePOgQbVpTFOs5-40">
          <mxGeometry x="281" y="1154.37" width="150" height="20" as="geometry" />
        </mxCell>
        <mxCell id="5NB1hFwePOgQbVpTFOs5-561" value="" style="endArrow=none;html=1;fontSize=13;fontColor=#000000;entryX=0.75;entryY=1;entryDx=0;entryDy=0;exitX=0.75;exitY=0;exitDx=0;exitDy=0;" edge="1" parent="5NB1hFwePOgQbVpTFOs5-40" source="5NB1hFwePOgQbVpTFOs5-558" target="5NB1hFwePOgQbVpTFOs5-558">
          <mxGeometry width="50" height="50" relative="1" as="geometry">
            <mxPoint x="321" y="1064.37" as="sourcePoint" />
            <mxPoint x="391" y="1064.37" as="targetPoint" />
          </mxGeometry>
        </mxCell>
        <mxCell id="5NB1hFwePOgQbVpTFOs5-562" value="" style="endArrow=none;html=1;fontSize=13;fontColor=#000000;entryX=0.75;entryY=1;entryDx=0;entryDy=0;exitX=0.75;exitY=0;exitDx=0;exitDy=0;" edge="1" parent="5NB1hFwePOgQbVpTFOs5-40">
          <mxGeometry width="50" height="50" relative="1" as="geometry">
            <mxPoint x="316" y="1073.87" as="sourcePoint" />
            <mxPoint x="396" y="1073.87" as="targetPoint" />
          </mxGeometry>
        </mxCell>
        <mxCell id="5NB1hFwePOgQbVpTFOs5-563" value="" style="endArrow=none;html=1;fontSize=13;fontColor=#000000;entryX=0.994;entryY=0.12;entryDx=0;entryDy=0;entryPerimeter=0;" edge="1" parent="5NB1hFwePOgQbVpTFOs5-40" target="5NB1hFwePOgQbVpTFOs5-558">
          <mxGeometry width="50" height="50" relative="1" as="geometry">
            <mxPoint x="326" y="1144.37" as="sourcePoint" />
            <mxPoint x="326" y="1044.37" as="targetPoint" />
          </mxGeometry>
        </mxCell>
        <mxCell id="5NB1hFwePOgQbVpTFOs5-564" value="" style="rounded=1;whiteSpace=wrap;html=1;strokeWidth=1;fontSize=13;fontColor=#000000;rotation=-90;" vertex="1" parent="5NB1hFwePOgQbVpTFOs5-40">
          <mxGeometry x="568.5" y="1051.87" width="105" height="80" as="geometry" />
        </mxCell>
        <mxCell id="5NB1hFwePOgQbVpTFOs5-565" value="" style="rounded=1;whiteSpace=wrap;html=1;strokeWidth=1;fontSize=13;fontColor=#000000;" vertex="1" parent="5NB1hFwePOgQbVpTFOs5-40">
          <mxGeometry x="591" y="1124.37" width="70" height="20" as="geometry" />
        </mxCell>
        <mxCell id="5NB1hFwePOgQbVpTFOs5-566" value="{Journal Name}" style="text;html=1;strokeColor=none;fillColor=none;align=center;verticalAlign=middle;whiteSpace=wrap;rounded=0;fontSize=13;fontColor=#000000;" vertex="1" parent="5NB1hFwePOgQbVpTFOs5-40">
          <mxGeometry x="546" y="1154.37" width="150" height="20" as="geometry" />
        </mxCell>
        <mxCell id="5NB1hFwePOgQbVpTFOs5-567" value="" style="endArrow=none;html=1;fontSize=13;fontColor=#000000;entryX=0.75;entryY=1;entryDx=0;entryDy=0;exitX=0.75;exitY=0;exitDx=0;exitDy=0;" edge="1" parent="5NB1hFwePOgQbVpTFOs5-40" source="5NB1hFwePOgQbVpTFOs5-564" target="5NB1hFwePOgQbVpTFOs5-564">
          <mxGeometry width="50" height="50" relative="1" as="geometry">
            <mxPoint x="586" y="1064.37" as="sourcePoint" />
            <mxPoint x="656" y="1064.37" as="targetPoint" />
          </mxGeometry>
        </mxCell>
        <mxCell id="5NB1hFwePOgQbVpTFOs5-568" value="" style="endArrow=none;html=1;fontSize=13;fontColor=#000000;entryX=0.75;entryY=1;entryDx=0;entryDy=0;exitX=0.75;exitY=0;exitDx=0;exitDy=0;" edge="1" parent="5NB1hFwePOgQbVpTFOs5-40">
          <mxGeometry width="50" height="50" relative="1" as="geometry">
            <mxPoint x="581" y="1073.87" as="sourcePoint" />
            <mxPoint x="661" y="1073.87" as="targetPoint" />
          </mxGeometry>
        </mxCell>
        <mxCell id="5NB1hFwePOgQbVpTFOs5-569" value="" style="endArrow=none;html=1;fontSize=13;fontColor=#000000;entryX=0.994;entryY=0.12;entryDx=0;entryDy=0;entryPerimeter=0;" edge="1" parent="5NB1hFwePOgQbVpTFOs5-40" target="5NB1hFwePOgQbVpTFOs5-564">
          <mxGeometry width="50" height="50" relative="1" as="geometry">
            <mxPoint x="591" y="1144.37" as="sourcePoint" />
            <mxPoint x="591" y="1044.37" as="targetPoint" />
          </mxGeometry>
        </mxCell>
        <mxCell id="5NB1hFwePOgQbVpTFOs5-570" value="" style="rounded=1;whiteSpace=wrap;html=1;strokeWidth=1;fontSize=13;fontColor=#000000;rotation=-90;" vertex="1" parent="5NB1hFwePOgQbVpTFOs5-40">
          <mxGeometry x="849.5" y="1051.87" width="105" height="80" as="geometry" />
        </mxCell>
        <mxCell id="5NB1hFwePOgQbVpTFOs5-571" value="" style="rounded=1;whiteSpace=wrap;html=1;strokeWidth=1;fontSize=13;fontColor=#000000;" vertex="1" parent="5NB1hFwePOgQbVpTFOs5-40">
          <mxGeometry x="872" y="1124.37" width="70" height="20" as="geometry" />
        </mxCell>
        <mxCell id="5NB1hFwePOgQbVpTFOs5-572" value="{Journal Name}" style="text;html=1;strokeColor=none;fillColor=none;align=center;verticalAlign=middle;whiteSpace=wrap;rounded=0;fontSize=13;fontColor=#000000;" vertex="1" parent="5NB1hFwePOgQbVpTFOs5-40">
          <mxGeometry x="827" y="1154.37" width="150" height="20" as="geometry" />
        </mxCell>
        <mxCell id="5NB1hFwePOgQbVpTFOs5-573" value="" style="endArrow=none;html=1;fontSize=13;fontColor=#000000;entryX=0.75;entryY=1;entryDx=0;entryDy=0;exitX=0.75;exitY=0;exitDx=0;exitDy=0;" edge="1" parent="5NB1hFwePOgQbVpTFOs5-40" source="5NB1hFwePOgQbVpTFOs5-570" target="5NB1hFwePOgQbVpTFOs5-570">
          <mxGeometry width="50" height="50" relative="1" as="geometry">
            <mxPoint x="867" y="1064.37" as="sourcePoint" />
            <mxPoint x="937" y="1064.37" as="targetPoint" />
          </mxGeometry>
        </mxCell>
        <mxCell id="5NB1hFwePOgQbVpTFOs5-574" value="" style="endArrow=none;html=1;fontSize=13;fontColor=#000000;entryX=0.75;entryY=1;entryDx=0;entryDy=0;exitX=0.75;exitY=0;exitDx=0;exitDy=0;" edge="1" parent="5NB1hFwePOgQbVpTFOs5-40">
          <mxGeometry width="50" height="50" relative="1" as="geometry">
            <mxPoint x="862" y="1073.87" as="sourcePoint" />
            <mxPoint x="942" y="1073.87" as="targetPoint" />
          </mxGeometry>
        </mxCell>
        <mxCell id="5NB1hFwePOgQbVpTFOs5-575" value="" style="endArrow=none;html=1;fontSize=13;fontColor=#000000;entryX=0.994;entryY=0.12;entryDx=0;entryDy=0;entryPerimeter=0;" edge="1" parent="5NB1hFwePOgQbVpTFOs5-40" target="5NB1hFwePOgQbVpTFOs5-570">
          <mxGeometry width="50" height="50" relative="1" as="geometry">
            <mxPoint x="872" y="1144.37" as="sourcePoint" />
            <mxPoint x="872" y="1044.37" as="targetPoint" />
          </mxGeometry>
        </mxCell>
        <mxCell id="5NB1hFwePOgQbVpTFOs5-576" value="category: { Journal Category }" style="text;html=1;strokeColor=none;fillColor=none;align=center;verticalAlign=middle;whiteSpace=wrap;rounded=0;fontSize=13;fontColor=#000000;" vertex="1" parent="5NB1hFwePOgQbVpTFOs5-40">
          <mxGeometry x="521" y="1174.37" width="210" height="20" as="geometry" />
        </mxCell>
        <mxCell id="5NB1hFwePOgQbVpTFOs5-577" value="category: { Journal Category }" style="text;html=1;strokeColor=none;fillColor=none;align=center;verticalAlign=middle;whiteSpace=wrap;rounded=0;fontSize=13;fontColor=#000000;" vertex="1" parent="5NB1hFwePOgQbVpTFOs5-40">
          <mxGeometry x="797" y="1174.37" width="210" height="20" as="geometry" />
        </mxCell>
        <mxCell id="5NB1hFwePOgQbVpTFOs5-578" value="category: { Journal Category }" style="text;html=1;strokeColor=none;fillColor=none;align=center;verticalAlign=middle;whiteSpace=wrap;rounded=0;fontSize=13;fontColor=#000000;" vertex="1" parent="5NB1hFwePOgQbVpTFOs5-40">
          <mxGeometry x="256" y="1174.37" width="210" height="20" as="geometry" />
        </mxCell>
        <mxCell id="5NB1hFwePOgQbVpTFOs5-579" value="" style="verticalLabelPosition=bottom;shadow=0;dashed=0;align=center;html=1;verticalAlign=top;strokeWidth=1;shape=mxgraph.mockup.navigation.scrollBar;strokeColor=#999999;barPos=20;fillColor2=#99ddff;strokeColor2=none;direction=north;fontSize=13;fontColor=#000000;" vertex="1" parent="5NB1hFwePOgQbVpTFOs5-40">
          <mxGeometry x="1030" y="800" width="20" height="480" as="geometry" />
        </mxCell>
        <mxCell id="5NB1hFwePOgQbVpTFOs5-582" value="Log Out" style="text;html=1;strokeColor=none;fillColor=none;align=center;verticalAlign=middle;whiteSpace=wrap;rounded=0;fontSize=13;fontColor=#000000;" vertex="1" parent="5NB1hFwePOgQbVpTFOs5-40">
          <mxGeometry x="109" y="-390" width="60" height="20" as="geometry" />
        </mxCell>
      </root>
    </mxGraphModel>
  </diagram>
</mxfile>
